<svg width="469" height="469" viewBox="0 0 469 469" fill="none" xmlns="http://www.w3.org/2000/svg">
<g opacity="0.6">
<path d="M102.488 328.244C102.488 333.35 98.3497 337.488 93.2442 337.488C88.1388 337.488 84 333.35 84 328.244C84 323.139 88.1388 319 93.2442 319C98.3497 319 102.488 323.139 102.488 328.244Z" fill="#202020"/>
<path fill-rule="evenodd" clip-rule="evenodd" d="M161.099 31.2628C175.358 16.5424 193.48 6.44753 213.231 2.22185C232.982 -2.00382 253.5 -0.175633 272.256 7.48117C291.012 15.138 307.188 28.2889 318.79 45.3135C330.392 62.3381 336.913 82.4926 337.55 103.294C363.176 95.6817 390.665 98.6164 414.238 111.481C437.811 124.345 455.632 146.138 463.955 172.277C472.194 198.343 470.287 226.727 458.637 251.368C446.986 276.01 426.506 295.011 401.524 304.357C416.334 327.082 421.978 354.867 417.26 381.815C412.541 408.764 397.83 432.754 376.25 448.696C354.629 464.806 327.825 471.704 301.404 467.957C274.984 464.21 250.977 450.107 234.371 428.576C224.03 441.999 210.714 452.662 195.545 459.666C180.375 466.67 163.796 469.81 147.205 468.822C130.613 467.834 114.495 462.747 100.207 453.99C85.9186 445.232 73.8797 433.06 65.1038 418.499C54.7789 401.296 49.4777 381.387 49.8349 361.157C50.1921 340.926 56.1924 321.23 67.1177 304.427C42.1973 294.915 21.8157 275.816 10.249 251.135C-1.31767 226.455 -3.17042 198.111 5.07945 172.052C13.3293 145.993 31.0407 124.242 54.4975 111.365C77.9543 98.487 105.334 95.4827 130.891 102.982C131.805 76.0042 142.6 50.3874 161.099 31.2974M308.214 244.17C308.214 286.073 275.085 320.01 234.203 320.01C193.321 320.01 160.193 286.073 160.193 244.17C160.193 202.267 193.321 168.329 234.203 168.329C275.085 168.329 308.214 202.267 308.214 244.17Z" fill="#C0E67E"/>
<path fill-rule="evenodd" clip-rule="evenodd" d="M161.099 31.2628C175.358 16.5424 193.48 6.44753 213.231 2.22185C232.982 -2.00382 253.5 -0.175633 272.256 7.48117C291.012 15.138 307.188 28.2889 318.79 45.3135C330.392 62.3381 336.913 82.4926 337.55 103.294C363.176 95.6817 390.665 98.6164 414.238 111.481C437.811 124.345 455.632 146.138 463.955 172.277C472.194 198.343 470.287 226.727 458.637 251.368C446.986 276.01 426.506 295.011 401.524 304.357C416.334 327.082 421.978 354.867 417.26 381.815C412.541 408.764 397.83 432.754 376.25 448.696C354.629 464.806 327.825 471.704 301.404 467.957C274.984 464.21 250.977 450.107 234.371 428.576C224.03 441.999 210.714 452.662 195.545 459.666C180.375 466.67 163.796 469.81 147.205 468.822C130.613 467.834 114.495 462.747 100.207 453.99C85.9186 445.232 73.8797 433.06 65.1038 418.499C54.7789 401.296 49.4777 381.387 49.8349 361.157C50.1921 340.926 56.1924 321.23 67.1177 304.427C42.1973 294.915 21.8157 275.816 10.249 251.135C-1.31767 226.455 -3.17042 198.111 5.07945 172.052C13.3293 145.993 31.0407 124.242 54.4975 111.365C77.9543 98.487 105.334 95.4827 130.891 102.982C131.805 76.0042 142.6 50.3874 161.099 31.2974M308.214 244.17C308.214 286.073 275.085 320.01 234.203 320.01C193.321 320.01 160.193 286.073 160.193 244.17C160.193 202.267 193.321 168.329 234.203 168.329C275.085 168.329 308.214 202.267 308.214 244.17Z" fill="#C0E67E"/>
<mask id="mask0_33527_26575" style="mask-type:alpha" maskUnits="userSpaceOnUse" x="118" y="119" width="236" height="236">
<path d="M353.955 236.958C353.955 301.851 301.349 354.458 236.455 354.458C171.562 354.458 118.955 301.851 118.955 236.958C118.955 172.065 171.562 119.458 236.455 119.458C301.349 119.458 353.955 172.065 353.955 236.958Z" fill="#70ACDE"/>
</mask>
<g mask="url(#mask0_33527_26575)">
<circle cx="236.201" cy="237.22" r="117.5" fill="white"/>
</g>
<path d="M211.955 225.458C211.955 233.19 205.687 239.458 197.955 239.458C190.223 239.458 183.955 233.19 183.955 225.458C183.955 217.726 190.223 211.458 197.955 211.458C205.687 211.458 211.955 217.726 211.955 225.458Z" fill="#202020"/>
<path d="M288.955 225.458C288.955 233.19 282.687 239.458 274.955 239.458C267.223 239.458 260.955 233.19 260.955 225.458C260.955 217.726 267.223 211.458 274.955 211.458C282.687 211.458 288.955 217.726 288.955 225.458Z" fill="#202020"/>
<path d="M220.743 269.032C218.5 270.008 215.768 269.256 214.546 267.291C213.324 265.325 214.06 262.866 216.181 261.694L216.391 261.585C231.303 254.245 245.629 258.278 251.542 261.587L251.818 261.744L252.018 261.867C254.035 263.175 254.567 265.676 253.186 267.556C251.804 269.436 249.016 270.007 246.86 268.887L246.654 268.773L246.479 268.674C242.713 266.575 232.119 263.44 220.959 268.932L220.743 269.032Z" fill="#202020"/>
<circle cx="162.455" cy="258.958" r="22.5" fill="#FFC5C5"/>
<circle cx="311.455" cy="258.958" r="22.5" fill="#FFC5C5"/>
<circle cx="204.455" cy="219.958" r="4.5" fill="white"/>
<circle cx="281.455" cy="219.958" r="4.5" fill="white"/>
</g>
</svg>
