<svg width="30" height="30" viewBox="0 0 30 30" fill="none" xmlns="http://www.w3.org/2000/svg">
<path d="M6.55568 20.9966C6.55568 21.3232 6.29094 21.5879 5.96436 21.5879C5.63779 21.5879 5.37305 21.3232 5.37305 20.9966C5.37305 20.67 5.63779 20.4053 5.96436 20.4053C6.29094 20.4053 6.55568 20.67 6.55568 20.9966Z" fill="#202020"/>
<path fill-rule="evenodd" clip-rule="evenodd" d="M10.3049 1.99975C11.2169 1.05815 12.3761 0.412422 13.6395 0.142123C14.9029 -0.128176 16.2153 -0.0112345 17.4151 0.47854C18.6149 0.968314 19.6496 1.80952 20.3917 2.89852C21.1338 3.98751 21.5509 5.27671 21.5917 6.60728C23.2309 6.12037 24.9892 6.30808 26.4971 7.13097C28.0049 7.95386 29.1449 9.34784 29.6773 11.0199C30.2043 12.6872 30.0823 14.5028 29.3371 16.079C28.5919 17.6552 27.2818 18.8707 25.6838 19.4685C26.6312 20.9221 26.9922 22.6994 26.6904 24.4232C26.3885 26.1469 25.4476 27.6815 24.0672 28.7013C22.6842 29.7317 20.9696 30.173 19.2796 29.9333C17.5896 29.6936 16.054 28.7915 14.9918 27.4143C14.3303 28.2729 13.4785 28.9549 12.5082 29.4029C11.5379 29.8509 10.4774 30.0518 9.41609 29.9886C8.35479 29.9254 7.32375 29.6001 6.40981 29.0399C5.49586 28.4797 4.72578 27.7011 4.16442 26.7696C3.50398 25.6692 3.16489 24.3958 3.18773 23.1017C3.21058 21.8076 3.5944 20.5478 4.29324 19.4729C2.69919 18.8645 1.39546 17.6428 0.655587 16.0641C-0.0842857 14.4854 -0.202799 12.6724 0.324912 11.0055C0.852623 9.33854 1.98554 7.94727 3.48598 7.12354C4.98642 6.29981 6.73775 6.10764 8.37255 6.58734C8.43105 4.86167 9.12156 3.22308 10.3049 2.00197M19.7152 15.6185C19.7152 18.2989 17.5961 20.4697 14.981 20.4697C12.366 20.4697 10.2469 18.2989 10.2469 15.6185C10.2469 12.9382 12.366 10.7673 14.981 10.7673C17.5961 10.7673 19.7152 12.9382 19.7152 15.6185Z" fill="#C0E67E"/>
<path fill-rule="evenodd" clip-rule="evenodd" d="M10.3049 1.99975C11.2169 1.05815 12.3761 0.412422 13.6395 0.142123C14.9029 -0.128176 16.2153 -0.0112345 17.4151 0.47854C18.6149 0.968314 19.6496 1.80952 20.3917 2.89852C21.1338 3.98751 21.5509 5.27671 21.5917 6.60728C23.2309 6.12037 24.9892 6.30808 26.4971 7.13097C28.0049 7.95386 29.1449 9.34784 29.6773 11.0199C30.2043 12.6872 30.0823 14.5028 29.3371 16.079C28.5919 17.6552 27.2818 18.8707 25.6838 19.4685C26.6312 20.9221 26.9922 22.6994 26.6904 24.4232C26.3885 26.1469 25.4476 27.6815 24.0672 28.7013C22.6842 29.7317 20.9696 30.173 19.2796 29.9333C17.5896 29.6936 16.054 28.7915 14.9918 27.4143C14.3303 28.2729 13.4785 28.9549 12.5082 29.4029C11.5379 29.8509 10.4774 30.0518 9.41609 29.9886C8.35479 29.9254 7.32375 29.6001 6.40981 29.0399C5.49586 28.4797 4.72578 27.7011 4.16442 26.7696C3.50398 25.6692 3.16489 24.3958 3.18773 23.1017C3.21058 21.8076 3.5944 20.5478 4.29324 19.4729C2.69919 18.8645 1.39546 17.6428 0.655587 16.0641C-0.0842857 14.4854 -0.202799 12.6724 0.324912 11.0055C0.852623 9.33854 1.98554 7.94727 3.48598 7.12354C4.98642 6.29981 6.73775 6.10764 8.37255 6.58734C8.43105 4.86167 9.12156 3.22308 10.3049 2.00197M19.7152 15.6185C19.7152 18.2989 17.5961 20.4697 14.981 20.4697C12.366 20.4697 10.2469 18.2989 10.2469 15.6185C10.2469 12.9382 12.366 10.7673 14.981 10.7673C17.5961 10.7673 19.7152 12.9382 19.7152 15.6185Z" fill="#C0E67E"/>
<mask id="mask0_33542_34165" style="mask-type:alpha" maskUnits="userSpaceOnUse" x="7" y="7" width="16" height="16">
<path d="M22.6414 15.1576C22.6414 19.3086 19.2763 22.6736 15.1254 22.6736C10.9744 22.6736 7.60938 19.3086 7.60938 15.1576C7.60938 11.0066 10.9744 7.6416 15.1254 7.6416C19.2763 7.6416 22.6414 11.0066 22.6414 15.1576Z" fill="#70ACDE"/>
</mask>
<g mask="url(#mask0_33542_34165)">
<circle cx="15.1088" cy="15.1742" r="7.51601" fill="white"/>
</g>
<mask id="mask1_33542_34165" style="mask-type:alpha" maskUnits="userSpaceOnUse" x="7" y="7" width="16" height="16">
<path d="M22.6414 15.1576C22.6414 19.3086 19.2763 22.6736 15.1254 22.6736C10.9744 22.6736 7.60938 19.3086 7.60938 15.1576C7.60938 11.0066 10.9744 7.6416 15.1254 7.6416C19.2763 7.6416 22.6414 11.0066 22.6414 15.1576Z" fill="#70ACDE"/>
</mask>
<g mask="url(#mask1_33542_34165)">
<circle cx="15.1088" cy="15.1742" r="7.51601" fill="white"/>
</g>
<path d="M13.5576 14.4219C13.5576 14.9165 13.1567 15.3174 12.6621 15.3174C12.1675 15.3174 11.7666 14.9165 11.7666 14.4219C11.7666 13.9273 12.1675 13.5264 12.6621 13.5264C13.1567 13.5264 13.5576 13.9273 13.5576 14.4219Z" fill="#202020"/>
<path d="M18.4834 14.4219C18.4834 14.9165 18.0825 15.3174 17.5879 15.3174C17.0933 15.3174 16.6924 14.9165 16.6924 14.4219C16.6924 13.9273 17.0933 13.5264 17.5879 13.5264C18.0825 13.5264 18.4834 13.9273 18.4834 14.4219Z" fill="#202020"/>
<path d="M15.81 16.496C15.9534 16.4336 16.1282 16.4816 16.2064 16.6074C16.2846 16.7331 16.2374 16.8904 16.1018 16.9654L16.0884 16.9724C15.1345 17.4419 14.2181 17.1839 13.8399 16.9722L13.8223 16.9622L13.8095 16.9543C13.6804 16.8706 13.6464 16.7107 13.7348 16.5904C13.8231 16.4701 14.0015 16.4337 14.1394 16.5053L14.1526 16.5126L14.1637 16.5189C14.4046 16.6532 15.0823 16.8537 15.7962 16.5024L15.81 16.496Z" fill="#202020"/>
<circle cx="10.3914" cy="16.5642" r="1.43923" fill="#FFC5C5"/>
<circle cx="19.9226" cy="16.5642" r="1.43923" fill="#FFC5C5"/>
<circle cx="13.0779" cy="14.0701" r="0.287846" fill="white"/>
<circle cx="18.0037" cy="14.0701" r="0.287846" fill="white"/>
</svg>
