<svg width="42" height="35" viewBox="0 0 42 35" fill="none" xmlns="http://www.w3.org/2000/svg">
<rect x="2" width="30" height="30" rx="15" fill="#E5F3FF"/>
<g filter="url(#filter0_d_32810_25849)">
<path d="M15.1609 9.375C16.6924 9.375 18.0794 10.0002 19.0857 11.0118C19.1785 11.1052 19.309 11.1502 19.4391 11.1342C19.646 11.1088 19.8571 11.0956 20.0714 11.0956C21.6197 11.0956 22.9984 11.7801 23.8855 12.8454C23.9835 12.9632 24.1358 13.0204 24.2868 13.0001C24.4323 12.9806 24.581 12.9704 24.7321 12.9704C26.4679 12.9704 27.875 14.3037 27.875 15.9483C27.875 17.593 26.4679 18.9262 24.7321 18.9263C24.4381 18.9263 24.1535 18.8879 23.8835 18.8164C23.7371 18.7775 23.5798 18.8144 23.4682 18.9178C22.5938 19.728 21.3946 20.2279 20.0714 20.2279C19.4208 20.2279 18.8002 20.107 18.2334 19.8879C18.1149 19.842 17.9822 19.8514 17.8715 19.9139C17.0694 20.3668 16.145 20.625 15.1609 20.625C14.0865 20.625 13.0833 20.3173 12.2326 19.7843C12.0694 19.682 11.8577 19.7021 11.7103 19.8264C11.1196 20.3248 10.3594 20.6249 9.52982 20.6249C7.64941 20.6249 6.12501 19.0842 6.125 17.1838C6.125 15.2833 7.6494 13.7426 9.52982 13.7426C9.64744 13.7426 9.75213 13.6634 9.7824 13.5485C10.4157 11.1454 12.5837 9.375 15.1609 9.375Z" fill="white"/>
<path d="M12.6886 12.8111C12.6886 13.03 12.5129 13.2076 12.2963 13.2076C12.0796 13.2076 11.904 13.03 11.904 12.8111C11.904 12.5921 12.0796 12.4146 12.2963 12.4146C12.5129 12.4146 12.6886 12.5921 12.6886 12.8111Z" fill="#202020"/>
<path d="M14.4538 12.4807C14.4538 12.6997 14.2782 12.8772 14.0616 12.8772C13.8449 12.8772 13.6693 12.6997 13.6693 12.4807C13.6693 12.2617 13.8449 12.0842 14.0616 12.0842C14.2782 12.0842 14.4538 12.2617 14.4538 12.4807Z" fill="#202020"/>
<path d="M12.4432 13.9005C12.5189 13.8032 12.6562 13.7838 12.7551 13.8544L12.7645 13.8615L12.79 13.8808C12.9232 13.9779 13.1422 14.077 13.3833 14.0746C13.6261 14.0723 13.9186 13.9674 14.1941 13.5872L14.2013 13.5779C14.2777 13.483 14.4152 13.4643 14.514 13.5374C14.6159 13.6129 14.638 13.7576 14.5634 13.8606L14.5299 13.9056C14.1819 14.3616 13.772 14.5334 13.3877 14.5371C13.0292 14.5406 12.7163 14.3981 12.5196 14.254L12.4819 14.2252L12.4728 14.2177C12.3815 14.1373 12.3676 13.9978 12.4432 13.9005Z" fill="#202020"/>
</g>
<defs>
<filter id="filter0_d_32810_25849" x="0.125" y="3.375" width="41.75" height="31.25" filterUnits="userSpaceOnUse" color-interpolation-filters="sRGB">
<feFlood flood-opacity="0" result="BackgroundImageFix"/>
<feColorMatrix in="SourceAlpha" type="matrix" values="0 0 0 0 0 0 0 0 0 0 0 0 0 0 0 0 0 0 127 0" result="hardAlpha"/>
<feOffset dx="4" dy="4"/>
<feGaussianBlur stdDeviation="5"/>
<feComposite in2="hardAlpha" operator="out"/>
<feColorMatrix type="matrix" values="0 0 0 0 0.240404 0 0 0 0 0.618659 0 0 0 0 0.949632 0 0 0 0.04 0"/>
<feBlend mode="normal" in2="BackgroundImageFix" result="effect1_dropShadow_32810_25849"/>
<feBlend mode="normal" in="SourceGraphic" in2="effect1_dropShadow_32810_25849" result="shape"/>
</filter>
</defs>
</svg>
