<svg width="182" height="182" viewBox="0 0 182 182" fill="none" xmlns="http://www.w3.org/2000/svg">
<mask id="mask0_29267_12027" style="mask-type:alpha" maskUnits="userSpaceOnUse" x="30" y="30" width="122" height="122">
<path d="M152 91C152 124.689 124.689 152 91 152C57.3106 152 30 124.689 30 91C30 57.3106 57.3106 30 91 30C124.689 30 152 57.3106 152 91Z" fill="#70ACDE"/>
</mask>
<g mask="url(#mask0_29267_12027)">
<circle cx="90.8703" cy="91.1447" r="61.0001" fill="#CDE7FF"/>
<circle cx="90.8703" cy="91.1447" r="61.0001" fill="url(#paint0_linear_29267_12027)" fill-opacity="0.1"/>
<path d="M29.2073 35.8996C45.0207 22.0856 67.5344 21.9846 79.493 35.674C88.3507 45.8137 88.9325 60.6751 82.2126 73.3143C82.0923 73.5406 82.1273 73.8186 82.2959 74.0116C88.2007 80.7711 86.6577 91.7803 78.8495 98.6013C71.0412 105.422 59.9247 105.472 54.0198 98.7128C52.4723 96.9414 50.2507 95.6989 47.9025 95.8367C38.0831 96.4128 28.6387 93.0378 22.2277 85.699C10.2692 72.0096 13.394 49.7137 29.2073 35.8996Z" fill="#DAF5EB"/>
<path d="M119.318 46.5418C126.364 45.0258 133.14 48.7416 134.452 54.8413C135.765 60.941 131.117 67.1147 124.071 68.6308C123.011 68.8588 121.957 68.9684 120.928 68.9694C118.619 68.9717 116.283 69.5054 114.091 70.2305C110.787 71.3235 107.248 70.633 105.08 68.1511C102.054 64.6864 102.844 59.0433 106.847 55.5471C107.018 55.3972 107.193 55.2538 107.37 55.1167C108.797 54.0144 110.141 52.7517 111.278 51.3524C113.161 49.0353 115.969 47.2624 119.318 46.5418Z" fill="#DAF5EB"/>
<path d="M107.695 95.6369C116.122 93.8236 124.444 99.2799 126.283 107.824C126.284 107.829 126.287 107.834 126.292 107.837C129.449 109.712 131.78 112.679 132.566 116.33C133.775 121.952 130.978 127.601 125.954 130.843C125.93 130.859 125.933 130.895 125.959 130.907C125.986 130.918 126.002 130.947 125.977 130.962C124.736 131.697 98.6375 146.923 84.172 135.143C81.5578 133.266 79.6547 130.573 78.96 127.344C77.3456 119.841 82.8687 112.288 91.2962 110.475C91.3138 110.471 91.3314 110.467 91.3489 110.464C93.5874 109.989 95.4778 108.237 96.1905 106.063C97.8687 100.942 102.102 96.8402 107.695 95.6369Z" fill="#DAF5EB"/>
<path d="M75.1154 69.0516C75.1154 70.7478 73.7404 72.1228 72.0442 72.1228C70.348 72.1228 68.973 70.7478 68.973 69.0516C68.973 67.3555 70.348 65.9805 72.0442 65.9805C73.7404 65.9805 75.1154 67.3555 75.1154 69.0516Z" fill="#9297A3"/>
<path d="M95.6588 69.0516C95.6588 70.7478 94.2838 72.1228 92.5877 72.1228C90.8915 72.1228 89.5165 70.7478 89.5165 69.0516C89.5165 67.3555 90.8915 65.9805 92.5877 65.9805C94.2838 65.9805 95.6588 67.3555 95.6588 69.0516Z" fill="#9297A3"/>
<path d="M87.9074 81.8801C88.9645 82.3967 90.2523 81.9987 90.8282 80.9576C91.4042 79.9164 91.0569 78.614 90.0575 77.9931L89.9587 77.9352C82.9308 74.0476 76.1793 76.1836 73.3923 77.9364L73.2626 78.0196L73.1683 78.0847C72.2174 78.7776 71.9669 80.1021 72.6179 81.098C73.269 82.094 74.583 82.3961 75.5991 81.8029L75.6963 81.7427L75.7785 81.6902C77.5533 80.5785 82.5464 78.9178 87.8059 81.8271L87.9074 81.8801Z" fill="#9297A3"/>
<path d="M101.023 77.1447C99.4331 76.3171 98.6344 74.476 97.9559 72.1451C97.8637 71.8282 98.1032 71.5125 98.4331 71.5225C99.9892 71.5696 103.357 71.8687 104.268 73.7661C105.35 76.0185 103.186 78.2709 101.023 77.1447Z" fill="#94BDF6"/>
</g>
<defs>
<linearGradient id="paint0_linear_29267_12027" x1="81.4909" y1="58.6718" x2="126.999" y2="138.141" gradientUnits="userSpaceOnUse">
<stop stop-color="white"/>
<stop offset="1" stop-color="#2887D7"/>
</linearGradient>
</defs>
</svg>
