<svg width="26" height="25" viewBox="0 0 26 25" fill="none" xmlns="http://www.w3.org/2000/svg">
<path fill-rule="evenodd" clip-rule="evenodd" d="M9.09835 2.4349C9.83536 1.69903 10.772 1.19438 11.7929 0.983141C12.8138 0.771899 13.8743 0.86329 14.8438 1.24606C15.8133 1.62882 16.6494 2.28623 17.249 3.1373C17.8487 3.98836 18.1858 4.99589 18.2187 6.03574C19.5433 5.65521 20.9641 5.80192 22.1825 6.44502C23.401 7.08812 24.3221 8.17752 24.7523 9.48424C25.1782 10.7873 25.0796 12.2062 24.4774 13.438C23.8752 14.6698 22.8166 15.6197 21.5254 16.0869C22.2909 17.223 22.5826 18.6119 22.3387 19.9591C22.0948 21.3062 21.3345 22.5055 20.219 23.3025C19.1015 24.1078 17.716 24.4526 16.3504 24.2653C14.9848 24.078 13.7439 23.373 12.8856 22.2967C12.3511 22.9677 11.6628 23.5007 10.8788 23.8508C10.0947 24.201 9.23776 24.3579 8.38018 24.3086C7.52259 24.2592 6.68946 24.0049 5.95094 23.5671C5.21243 23.1293 4.59016 22.5208 4.13655 21.7929C3.60288 20.9329 3.32888 19.9377 3.34734 18.9263C3.3658 17.915 3.67595 16.9304 4.24065 16.0904C2.95257 15.6149 1.89909 14.6601 1.30123 13.4264C0.703377 12.1926 0.607612 10.7757 1.03403 9.47297C1.46045 8.17026 2.37591 7.08296 3.58834 6.4392C4.80077 5.79545 6.21594 5.64526 7.53694 6.02016C7.58422 4.67153 8.14219 3.39094 9.09835 2.43663M16.7024 13.0782C16.7024 15.1729 14.99 16.8694 12.8769 16.8694C10.7638 16.8694 9.05151 15.1729 9.05151 13.0782C9.05151 10.9834 10.7638 9.28689 12.8769 9.28689C14.99 9.28689 16.7024 10.9834 16.7024 13.0782Z" fill="#FBFBFB"/>
</svg>
