<svg width="24" height="24" viewBox="0 0 24 24" fill="none" xmlns="http://www.w3.org/2000/svg">
<path d="M21 6.021C21.003 5.875 20.993 4.556 19.7 3.286C18.427 2.036 17.143 2 17 2H6.996C6.757 2 5.503 2.063 4.288 3.302C3.036 4.578 3 5.859 3 6V9H2V12H3V18C3 18.734 3.406 19.373 4 19.721V21C4 21.2652 4.10536 21.5196 4.29289 21.7071C4.48043 21.8946 4.73478 22 5 22H6C6.26522 22 6.51957 21.8946 6.70711 21.7071C6.89464 21.5196 7 21.2652 7 21V20H17V21C17 21.2652 17.1054 21.5196 17.2929 21.7071C17.4804 21.8946 17.7348 22 18 22H19C19.2652 22 19.5196 21.8946 19.7071 21.7071C19.8946 21.5196 20 21.2652 20 21V19.723C20.3034 19.549 20.5556 19.2981 20.7311 18.9956C20.9067 18.6932 20.9994 18.3497 21 18V12H22V9H21V6.021ZM9 4H15V6H9V4ZM6.5 18C6.10204 17.9999 5.72044 17.8417 5.43913 17.5602C5.15783 17.2787 4.99987 16.897 5 16.499C5.00013 16.101 5.15835 15.7194 5.43984 15.4381C5.72133 15.1568 6.10304 14.9989 6.501 14.999C6.89896 14.9991 7.28056 15.1573 7.56187 15.4388C7.84317 15.7203 8.00113 16.102 8.001 16.5C8.00087 16.898 7.84265 17.2796 7.56116 17.5609C7.27967 17.8422 6.89796 18.0001 6.5 18ZM11 13H5V8H11V13ZM17.5 18C17.102 17.9999 16.7204 17.8417 16.4391 17.5602C16.1578 17.2787 15.9999 16.897 16 16.499C16.0001 16.101 16.1583 15.7194 16.4398 15.4381C16.7213 15.1568 17.103 14.9989 17.501 14.999C17.899 14.9991 18.2806 15.1573 18.5619 15.4388C18.8432 15.7203 19.0011 16.102 19.001 16.5C19.0009 16.898 18.8427 17.2796 18.5612 17.5609C18.2797 17.8422 17.898 18.0001 17.5 18ZM19 13H13V8H19V13Z" fill="black"/>
</svg>
