<svg width="24" height="24" viewBox="0 0 24 24" fill="none" xmlns="http://www.w3.org/2000/svg">
<path fill-rule="evenodd" clip-rule="evenodd" d="M21.0002 11.7168C21.001 11.065 20.942 10.4144 20.8239 9.77285H11.6916V13.4478H16.9089C16.8006 14.0285 16.5734 14.5816 16.241 15.0739C15.9085 15.5661 15.4778 15.9873 14.9747 16.3118V18.6962H18.1071C19.9399 17.0422 20.9974 14.6059 20.9974 11.715L21.0002 11.7168Z" fill="#3E82F1"/>
<path fill-rule="evenodd" clip-rule="evenodd" d="M11.694 21C14.3113 21 16.5058 20.1497 18.1094 18.6989L14.9771 16.3146C14.1086 16.8847 12.9981 17.2221 11.694 17.2221C9.16893 17.2221 7.03197 15.5502 6.27034 13.3047H3.03111V15.7668C3.83803 17.3405 5.07551 18.6633 6.60531 19.5875C8.1351 20.5116 9.89695 21.0007 11.694 21Z" fill="#32A753"/>
<path fill-rule="evenodd" clip-rule="evenodd" d="M6.27034 13.3047C5.86486 12.1343 5.86491 10.8653 6.27038 9.69495V7.23276H3.03116C2.35321 8.55702 2.00018 10.0181 2.00018 11.4997C2.00018 12.9813 2.35317 14.4426 3.03111 15.7668L6.27034 13.3047Z" fill="#F9BB00"/>
<path fill-rule="evenodd" clip-rule="evenodd" d="M11.694 5.77786C13.1177 5.77786 14.3953 6.25759 15.3999 7.19915L18.1797 4.47383C16.5012 2.94067 14.3067 2 11.6958 2C9.89875 1.99935 8.1369 2.4884 6.60711 3.41254C5.07732 4.33667 3.83983 5.65948 3.03292 7.23316L6.27214 9.69536C7.03377 7.44976 9.17072 5.77786 11.6958 5.77786H11.694Z" fill="#E74133"/>
</svg>
