<svg width="28" height="28" viewBox="0 0 28 28" fill="none" xmlns="http://www.w3.org/2000/svg">
<rect width="28" height="28" rx="14" fill="#3D9EF2"/>
<path d="M17.3333 13.3333L17.4017 13.3366C17.7378 13.3708 18 13.6549 18 14C18 14.3451 17.7378 14.6292 17.4017 14.6634L17.3333 14.6667H10.6667C10.2985 14.6667 10 14.3682 10 14C10 13.6318 10.2985 13.3333 10.6667 13.3333H17.3333Z" fill="white"/>
<path d="M14.6667 17.3333L14.6634 17.4017C14.6292 17.7378 14.3451 18 14 18C13.6549 18 13.3708 17.7378 13.3366 17.4017L13.3333 17.3333L13.3333 10.6667C13.3333 10.2985 13.6318 10 14 10C14.3682 10 14.6667 10.2985 14.6667 10.6667L14.6667 17.3333Z" fill="white"/>
</svg>
