<svg width="24" height="24" viewBox="0 0 24 24" fill="none" xmlns="http://www.w3.org/2000/svg">
<path d="M5.71484 11.1246L5.61328 11.1295C5.10883 11.1805 4.71484 11.6067 4.71484 12.1246C4.71484 12.6425 5.10883 13.0687 5.61328 13.1197L5.71484 13.1246L19.2334 13.1246C19.7857 13.1246 20.2334 12.6769 20.2334 12.1246C20.2334 11.5723 19.7857 11.1246 19.2334 11.1246L5.71484 11.1246Z" fill="black"/>
<path d="M8.71668 17.6383C9.0834 18.0512 9.71583 18.089 10.1288 17.7223C10.5415 17.3557 10.5791 16.7241 10.2128 16.3111L8.71668 17.6383ZM10.1552 6.55038C9.78076 6.19273 9.20163 6.18304 8.81629 6.5123L8.74207 6.58261L4.27723 11.2564C3.94025 11.6092 3.90911 12.149 4.19129 12.5357L4.25184 12.6109L8.71668 17.6383L10.2128 16.3111L6.36024 11.9713L10.1874 7.96347L10.2548 7.88632C10.566 7.48634 10.5295 6.90803 10.1552 6.55038Z" fill="black"/>
</svg>
