<svg width="24" height="24" viewBox="0 0 24 24" fill="none" xmlns="http://www.w3.org/2000/svg">
<path d="M12.002 4.25C12.0129 4.25 18.8797 4.25053 20.5977 4.71582C21.5446 4.96807 22.2897 5.71721 22.542 6.67188C22.9999 8.39891 22.9961 12 22.9961 12C22.9961 12.0252 22.9944 15.6073 22.5381 17.3281C22.2858 18.2789 21.5407 19.0281 20.5938 19.2842C18.8781 19.7459 11.998 19.7461 11.998 19.7461C11.9875 19.7461 5.11662 19.7456 3.40234 19.2842C2.45544 19.0319 1.71026 18.2828 1.45801 17.3281C1.00169 15.6073 1.00001 12.0252 1 12C1 12 1.00016 8.39887 1.46191 6.66797C1.71416 5.71718 2.45935 4.96804 3.40625 4.71191C5.12178 4.25014 12.002 4.25 12.002 4.25ZM9.75098 15.2715L15.502 12L9.75098 8.72852V15.2715Z" fill="#707177"/>
</svg>
