<svg width="24" height="24" viewBox="0 0 24 24" fill="none" xmlns="http://www.w3.org/2000/svg">
<path d="M22 3.41039L21.88 2.15039L20.68 2.55039C18.6234 3.26494 16.4273 3.48421 14.27 3.19039C12.0031 2.8386 9.68292 3.15121 7.59 4.09039C6.48048 4.56284 5.50675 5.30531 4.75747 6.2502C4.0082 7.19509 3.50717 8.3124 3.3 9.50039C3.03138 11.0351 3.16576 12.6132 3.69 14.0804C4.02755 13.3185 4.422 12.5831 4.87 11.8804C5.8862 10.3852 7.29428 9.19857 8.94 8.45039C10.5254 7.72652 12.2584 7.38404 14 7.45039C12.342 7.70389 10.755 8.29987 9.34 9.20039C8.65747 9.62924 8.03243 10.1434 7.48 10.7304C6.95166 11.3171 6.48582 11.9572 6.09 12.6404C5.34653 14.0684 4.81751 15.5982 4.52 17.1804C4.19931 18.7677 4.02525 20.3812 4 22.0004H6C6.094 20.5482 6.29116 19.1046 6.59 17.6804C7.97743 18.4296 9.53335 18.8117 11.11 18.7904C12.5805 18.7894 14.0358 18.4936 15.39 17.9204C23 14.6704 22 3.86039 22 3.41039Z" fill="black"/>
</svg>
