<svg width="24" height="24" viewBox="0 0 24 24" fill="none" xmlns="http://www.w3.org/2000/svg">
<path d="M6 18.5727C8.206 18.5727 10 16.7787 10 14.5727V4.42773L19 7.69973V15.1297C18.3949 14.7692 17.7044 14.5769 17 14.5727C14.794 14.5727 13 16.3667 13 18.5727C13 20.7787 14.794 22.5727 17 22.5727C19.206 22.5727 21 20.7787 21 18.5727V6.99973C21.0001 6.79456 20.937 6.59433 20.8193 6.4263C20.7016 6.25828 20.5349 6.13063 20.342 6.06073L9.342 2.06073C9.19099 2.00553 9.02889 1.98759 8.86947 2.00843C8.71005 2.02928 8.55801 2.0883 8.42627 2.18047C8.29454 2.27265 8.187 2.39526 8.11279 2.53789C8.03857 2.68052 7.99988 2.83895 8 2.99973V11.1297C7.39487 10.7692 6.70439 10.5769 6 10.5727C3.794 10.5727 2 12.3667 2 14.5727C2 16.7787 3.794 18.5727 6 18.5727Z" fill="black"/>
</svg>
