<svg width="24" height="24" viewBox="0 0 24 24" fill="none" xmlns="http://www.w3.org/2000/svg">
<path d="M21 10H3C2.73478 10 2.48043 10.1054 2.29289 10.2929C2.10536 10.4804 2 10.7348 2 11C2.00004 12.7553 2.46213 14.4797 3.33981 15.9999C4.21749 17.52 5.47985 18.7823 7 19.66V21C7 21.2652 7.10536 21.5196 7.29289 21.7071C7.48043 21.8946 7.73478 22 8 22H16C16.2652 22 16.5196 21.8946 16.7071 21.7071C16.8946 21.5196 17 21.2652 17 21V19.66C18.5202 18.7823 19.7825 17.52 20.6602 15.9999C21.5379 14.4797 22 12.7553 22 11C22 10.7348 21.8946 10.4804 21.7071 10.2929C21.5196 10.1054 21.2652 10 21 10ZM9 9V7.93C9.00063 6.75322 8.54129 5.6228 7.72 4.78C7.48815 4.54572 7.30512 4.26775 7.18152 3.96219C7.05793 3.65664 6.99623 3.32958 7 3V2H5V3C4.99413 4.1837 5.45386 5.32226 6.28 6.17C6.74339 6.63831 7.00229 7.27118 7 7.93V9H9ZM13 9V7.93C13.0006 6.75322 12.5413 5.6228 11.72 4.78C11.4882 4.54572 11.3051 4.26775 11.1815 3.96219C11.0579 3.65664 10.9962 3.32958 11 3V2H9V3C8.99937 4.17678 9.45871 5.30721 10.28 6.15C10.5118 6.38428 10.6949 6.66225 10.8185 6.96781C10.9421 7.27336 11.0038 7.60042 11 7.93V9H13ZM17 9V7.93C17.0006 6.75322 16.5413 5.6228 15.72 4.78C15.4882 4.54572 15.3051 4.26775 15.1815 3.96219C15.0579 3.65664 14.9962 3.32958 15 3V2H13V3C12.9994 4.17678 13.4587 5.30721 14.28 6.15C14.5118 6.38428 14.6949 6.66225 14.8185 6.96781C14.9421 7.27336 15.0038 7.60042 15 7.93V9H17Z" fill="black"/>
</svg>
