<svg width="50" height="67" viewBox="0 0 50 67" fill="none" xmlns="http://www.w3.org/2000/svg">
<path d="M22.9446 58.0395C7.80938 36.098 5 33.8461 5 25.7822C5 14.7365 13.9543 5.78223 25 5.78223C36.0457 5.78223 45 14.7365 45 25.7822C45 33.8461 42.1906 36.098 27.0554 58.0395C26.0622 59.4743 23.9377 59.4742 22.9446 58.0395Z" fill="#BEDA8E"/>
<path fill-rule="evenodd" clip-rule="evenodd" d="M20.3642 12.3226C21.2647 11.3656 22.4092 10.7092 23.6567 10.4345C24.9041 10.1598 26.2 10.2786 27.3846 10.7764C28.5692 11.2742 29.5908 12.1293 30.3236 13.2361C31.0563 14.343 31.4682 15.6533 31.5084 17.0057C33.1269 16.5108 34.8631 16.7016 36.3519 17.538C37.8407 18.3744 38.9662 19.7913 39.4919 21.4907C40.0123 23.1854 39.8918 25.0308 39.156 26.6329C38.4202 28.235 37.1267 29.4704 35.5489 30.078C36.4843 31.5555 36.8408 33.3619 36.5427 35.114C36.2447 36.866 35.3156 38.4258 33.9526 39.4623C32.5871 40.5097 30.8942 40.9581 29.2255 40.7145C27.5569 40.4709 26.0407 39.554 24.9919 38.1542C24.3388 39.0269 23.4977 39.7201 22.5397 40.1755C21.5816 40.6308 20.5345 40.835 19.4866 40.7708C18.4387 40.7066 17.4207 40.3758 16.5183 39.8064C15.6159 39.237 14.8555 38.4457 14.3013 37.499C13.6492 36.3805 13.3144 35.0862 13.3369 33.7708C13.3595 32.4555 13.7385 31.175 14.4285 30.0825C12.8545 29.4641 11.5673 28.2223 10.8368 26.6177C10.1062 25.0131 9.98922 23.1704 10.5103 21.4761C11.0313 19.7818 12.1499 18.3677 13.6314 17.5305C15.1129 16.6932 16.8421 16.4979 18.4563 16.9855C18.514 15.2315 19.1958 13.566 20.3642 12.3249M29.6556 26.1649C29.6556 28.8892 27.5633 31.0957 24.9813 31.0957C22.3992 31.0957 20.3069 28.8892 20.3069 26.1649C20.3069 23.4406 22.3992 21.2341 24.9813 21.2341C27.5633 21.2341 29.6556 23.4406 29.6556 26.1649Z" fill="white"/>
</svg>
