<svg width="24" height="24" viewBox="0 0 24 24" fill="none" xmlns="http://www.w3.org/2000/svg">
<path d="M20.247 3.03456C20.178 3.01656 18.505 2.60156 16.195 2.60156C13.353 2.60156 9.32698 3.24156 6.28498 6.28856C0.944975 11.6376 2.94498 19.8986 3.03298 20.2486C3.07722 20.4241 3.16831 20.5844 3.29653 20.7123C3.42474 20.8401 3.58527 20.9308 3.76098 20.9746C3.82998 20.9926 5.48698 21.4006 7.77898 21.4006C10.628 21.4006 14.663 20.7596 17.711 17.7126C23.046 12.3776 21.062 4.11256 20.975 3.76356C20.9307 3.58766 20.8397 3.42703 20.7115 3.29868C20.5833 3.17034 20.4228 3.07907 20.247 3.03456ZM16.71 12.2966L15.296 13.7106L13.503 11.9186L11.917 13.5046L13.709 15.2976L12.295 16.7116L10.503 14.9186L8.70998 16.7116L7.29598 15.2976L9.08898 13.5046L7.29598 11.7106L8.70998 10.2966L10.503 12.0906L12.089 10.5046L10.295 8.71156L11.709 7.29756L13.503 9.09056L15.296 7.29756L16.71 8.71156L14.917 10.5046L16.71 12.2966Z" fill="black"/>
</svg>
