<svg width="56" height="86" viewBox="0 0 56 86" fill="none" xmlns="http://www.w3.org/2000/svg">
<rect x="0.5" y="0.5" width="55" height="85" rx="4.5" stroke="#9747FF" stroke-dasharray="10 5"/>
<path d="M26.7262 19.0498C27.3131 18.1058 28.687 18.1058 29.2739 19.0498L31.6984 22.9493C31.9049 23.2814 32.233 23.5198 32.6127 23.6135L37.0705 24.7144C38.1497 24.9809 38.5742 26.2875 37.8578 27.1374L34.8984 30.6483C34.6463 30.9473 34.521 31.3329 34.5492 31.723L34.8798 36.3029C34.9598 37.4116 33.8483 38.2191 32.8186 37.8004L28.5651 36.0707C28.2028 35.9234 27.7973 35.9234 27.435 36.0707L23.1815 37.8004C22.1518 38.2191 21.0403 37.4116 21.1203 36.3029L21.4509 31.723C21.4791 31.3329 21.3538 30.9473 21.1017 30.6483L18.1423 27.1374C17.4259 26.2875 17.8504 24.9809 18.9295 24.7144L23.3874 23.6135C23.7671 23.5198 24.0952 23.2814 24.3017 22.9493L26.7262 19.0498Z" fill="#FFCB02"/>
<path d="M26.7262 49.0498C27.3131 48.1058 28.687 48.1058 29.2739 49.0498L31.6984 52.9493C31.9049 53.2814 32.233 53.5198 32.6127 53.6135L37.0705 54.7144C38.1497 54.9809 38.5742 56.2875 37.8578 57.1374L34.8984 60.6483C34.6463 60.9473 34.521 61.3329 34.5492 61.723L34.8798 66.3029C34.9598 67.4116 33.8483 68.2191 32.8186 67.8004L28.5651 66.0707C28.2028 65.9234 27.7973 65.9234 27.435 66.0707L23.1815 67.8004C22.1518 68.2191 21.0403 67.4116 21.1203 66.3029L21.4509 61.723C21.4791 61.3329 21.3538 60.9473 21.1017 60.6483L18.1423 57.1374C17.4259 56.2875 17.8504 54.9809 18.9295 54.7144L23.3874 53.6135C23.7671 53.5198 24.0952 53.2814 24.3017 52.9493L26.7262 49.0498Z" fill="#E0E0E5"/>
</svg>
