<svg width="24" height="24" viewBox="0 0 24 24" fill="none" xmlns="http://www.w3.org/2000/svg">
<path d="M13.5039 4.12654C13.5039 4.98709 12.8063 5.68471 11.9457 5.68471C11.0852 5.68471 10.3876 4.98709 10.3876 4.12654C10.3876 3.26598 11.0852 2.56836 11.9457 2.56836C12.8063 2.56836 13.5039 3.26598 13.5039 4.12654Z" fill="#1F1F22"/>
<path d="M11.9474 4.12651C15.0695 4.12676 17.6134 6.59842 17.7305 9.69198C17.7305 9.69358 17.7318 9.69487 17.7334 9.69487C17.7351 9.69487 17.7364 9.6962 17.7364 9.69785V13.074C17.7364 13.6934 18.4544 14.188 18.8019 14.7007L19.8136 16.1949C20.2628 16.8588 19.7871 17.7552 18.9855 17.7554H5.01475C4.21287 17.7554 3.73715 16.8589 4.18663 16.1949L5.19737 14.7007C5.52713 14.2139 6.15929 13.7477 6.15929 13.1597V9.69785C6.15929 9.6962 6.16062 9.69487 6.16227 9.69487C6.16387 9.69487 6.16519 9.69358 6.16525 9.69198C6.28237 6.59842 8.82521 4.12672 11.9474 4.12651Z" fill="#1F1F22"/>
<path d="M14.3514 19.0197C14.3513 20.3518 13.2714 21.4318 11.9393 21.4318C10.6904 21.4317 9.6633 20.4822 9.5399 19.2658L9.5272 19.0197H14.3514Z" fill="#1F1F22"/>
<rect x="15" y="4.54297" width="6" height="6" rx="3" fill="#FF2727"/>
<rect x="15" y="4.54297" width="6" height="6" rx="3" stroke="white"/>
</svg>
