<svg width="24" height="24" viewBox="0 0 24 24" fill="none" xmlns="http://www.w3.org/2000/svg">
<path d="M16.2431 14.8288L16.3122 14.9048C16.6324 15.2975 16.6092 15.877 16.2431 16.243C15.8771 16.6091 15.2977 16.6322 14.9049 16.3121L14.8289 16.243L7.75787 9.17195C7.36734 8.78143 7.36734 8.14826 7.75787 7.75774C8.14839 7.36721 8.78156 7.36721 9.17208 7.75774L16.2431 14.8288Z" fill="black"/>
<path d="M9.17208 16.243L9.09612 16.3121C8.70335 16.6322 8.12392 16.6091 7.75787 16.243C7.39182 15.877 7.36864 15.2975 7.68882 14.9048L7.75787 14.8288L14.8289 7.75774C15.2195 7.36721 15.8526 7.36721 16.2431 7.75774C16.6337 8.14826 16.6337 8.78143 16.2431 9.17195L9.17208 16.243Z" fill="black"/>
</svg>
