<svg width="56" height="86" viewBox="0 0 56 86" fill="none" xmlns="http://www.w3.org/2000/svg">
<rect x="0.5" y="0.5" width="55" height="85" rx="4.5" stroke="#9747FF" stroke-dasharray="10 5"/>
<path d="M33.1363 32.3834L30.7529 30C30.8761 29.8029 30.9715 29.572 31.0393 29.3072C31.107 29.0423 31.1409 28.7744 31.1409 28.5035C31.1409 27.6289 30.836 26.8868 30.2263 26.2771C29.6166 25.6674 28.8745 25.3626 28 25.3626C27.729 25.3626 27.4642 25.3934 27.2055 25.455C26.9469 25.5166 26.7129 25.6151 26.5035 25.7506L24.4711 23.6998C24.9022 23.5027 25.4534 23.3303 26.1247 23.1824C26.796 23.0346 27.4519 22.9607 28.0924 22.9607C29.7552 22.9607 31.2887 23.4165 32.6928 24.3279C34.097 25.2394 35.1686 26.465 35.9076 28.0046C35.9446 28.0662 35.9692 28.1401 35.9815 28.2263C35.9938 28.3125 36 28.4049 36 28.5035C36 28.602 35.9938 28.6975 35.9815 28.7898C35.9692 28.8822 35.9446 28.9592 35.9076 29.0208C35.5874 29.6982 35.1932 30.3202 34.7252 30.8868C34.2571 31.4534 33.7275 31.9523 33.1363 32.3834ZM33.8014 36.1524L31.1039 33.5104C30.6728 33.6828 30.1863 33.8152 29.6443 33.9076C29.1024 34 28.5543 34.0462 28 34.0462C26.3002 34.0462 24.7421 33.5905 23.3256 32.679C21.9092 31.7675 20.8314 30.542 20.0924 29.0023C20.0554 28.9284 20.0308 28.8514 20.0185 28.7714C20.0062 28.6913 20 28.602 20 28.5035C20 28.4049 20.0092 28.3095 20.0277 28.2171C20.0462 28.1247 20.0677 28.0477 20.0924 27.9861C20.351 27.4319 20.6805 26.893 21.0808 26.3695C21.4811 25.846 21.9523 25.3503 22.4942 24.8822L20.5543 22.9423C20.4434 22.8314 20.388 22.7021 20.388 22.5543C20.388 22.4065 20.4434 22.2771 20.5543 22.1663C20.6651 22.0554 20.7975 22 20.9515 22C21.1055 22 21.2379 22.0554 21.3487 22.1663L34.5774 35.3949C34.6759 35.4935 34.7252 35.6135 34.7252 35.7552C34.7252 35.8968 34.6759 36.0231 34.5774 36.1339C34.4788 36.2571 34.3526 36.3187 34.1986 36.3187C34.0447 36.3187 33.9122 36.2633 33.8014 36.1524ZM28 31.6443C28.1724 31.6443 28.3572 31.6289 28.5543 31.5982C28.7513 31.5674 28.9176 31.5212 29.0531 31.4596L25.0439 27.4503C24.9823 27.5982 24.9361 27.7644 24.9053 27.9492C24.8745 28.1339 24.8591 28.3187 24.8591 28.5035C24.8591 29.3903 25.1671 30.1355 25.7829 30.739C26.3988 31.3426 27.1378 31.6443 28 31.6443ZM29.94 29.1871L27.3164 26.5635C28.0801 26.2802 28.7883 26.428 29.4411 27.0069C30.0939 27.5858 30.2602 28.3125 29.94 29.1871Z" fill="#1F1F22"/>
<path d="M28 52C23.9091 52 20.4155 54.4258 19 57.85C20.4155 61.2742 23.9091 63.7 28 63.7C32.0909 63.7 35.5845 61.2742 37 57.85C35.5845 54.4258 32.0909 52 28 52ZM28 61.75C25.7418 61.75 23.9091 60.0028 23.9091 57.85C23.9091 55.6972 25.7418 53.95 28 53.95C30.2582 53.95 32.0909 55.6972 32.0909 57.85C32.0909 60.0028 30.2582 61.75 28 61.75ZM28 55.51C26.6418 55.51 25.5455 56.5552 25.5455 57.85C25.5455 59.1448 26.6418 60.19 28 60.19C29.3582 60.19 30.4545 59.1448 30.4545 57.85C30.4545 56.5552 29.3582 55.51 28 55.51Z" fill="#1F1F22"/>
</svg>
