<svg width="20" height="20" viewBox="0 0 20 20" fill="none" xmlns="http://www.w3.org/2000/svg">
<rect width="20" height="20" rx="10" fill="#1F1F22"/>
<path d="M12.8288 11.8859L12.8748 11.9365C13.0883 12.1984 13.0728 12.5846 12.8288 12.8287C12.5847 13.0727 12.1984 13.0882 11.9366 12.8747L11.886 12.8287L7.17191 8.11463C6.91156 7.85428 6.91156 7.43217 7.17191 7.17182C7.43226 6.91148 7.85437 6.91148 8.11472 7.17182L12.8288 11.8859Z" fill="white"/>
<path d="M8.11472 12.8287L8.06408 12.8747C7.80224 13.0882 7.41595 13.0727 7.17191 12.8287C6.92788 12.5846 6.91243 12.1984 7.12588 11.9365L7.17191 11.8859L11.886 7.17182C12.1463 6.91148 12.5684 6.91148 12.8288 7.17182C13.0891 7.43217 13.0891 7.85428 12.8288 8.11463L8.11472 12.8287Z" fill="white"/>
</svg>
