<svg width="50" height="49" viewBox="0 0 50 49" fill="none" xmlns="http://www.w3.org/2000/svg">
<mask id="mask0_29267_12090" style="mask-type:alpha" maskUnits="userSpaceOnUse" x="3" y="7" width="35" height="35">
<path d="M37.1552 24.4995C37.1552 33.791 29.623 41.3232 20.3315 41.3232C11.04 41.3232 3.50781 33.791 3.50781 24.4995C3.50781 15.208 11.04 7.67578 20.3315 7.67578C29.623 7.67578 37.1552 15.208 37.1552 24.4995Z" fill="#70ACDE"/>
</mask>
<g mask="url(#mask0_29267_12090)">
<circle cx="20.2905" cy="25.1697" r="19.2283" fill="#FF8F8F"/>
<circle cx="20.2905" cy="25.1697" r="19.2283" fill="url(#paint0_linear_29267_12090)" fill-opacity="0.2"/>
<ellipse cx="17.4819" cy="21.9677" rx="1.13378" ry="3.15325" fill="white"/>
<path d="M18.5763 22.1968C18.5763 21.2199 18.3576 20.393 18.0626 19.8522C17.9158 19.5832 17.77 19.421 17.6597 19.3354C17.5568 19.2557 17.5071 19.2573 17.5022 19.2573C17.4973 19.2573 17.4477 19.2557 17.3448 19.3354C17.2344 19.421 17.0886 19.5832 16.9419 19.8522C16.6468 20.393 16.4282 21.2199 16.4282 22.1968C16.4282 23.1738 16.6468 24.0006 16.9419 24.5414C17.0886 24.8104 17.2344 24.9726 17.3448 25.0582C17.4477 25.1379 17.4973 25.1363 17.5022 25.1363V26.3018L17.3869 26.2965C16.2418 26.19 15.3238 24.5071 15.2657 22.4081L15.2627 22.1968C15.2627 19.9297 16.2654 18.0918 17.5022 18.0918C18.7391 18.0918 19.7417 19.9297 19.7417 22.1968L19.7387 22.4081C19.6787 24.5771 18.7004 26.3018 17.5022 26.3018V25.1363C17.5071 25.1363 17.5568 25.1379 17.6597 25.0582C17.77 24.9726 17.9158 24.8104 18.0626 24.5414C18.3576 24.0006 18.5763 23.1738 18.5763 22.1968Z" fill="#1F1F22"/>
<path d="M15.3557 17.3281C15.3557 17.8556 14.9281 18.2832 14.4006 18.2832C13.8732 18.2832 13.4456 17.8556 13.4456 17.3281C13.4456 16.8006 13.8732 16.373 14.4006 16.373C14.9281 16.373 15.3557 16.8006 15.3557 17.3281Z" fill="#1F1F22"/>
<path d="M21.7431 17.3281C21.7431 17.8556 21.3155 18.2832 20.7881 18.2832C20.2606 18.2832 19.833 17.8556 19.833 17.3281C19.833 16.8006 20.2606 16.373 20.7881 16.373C21.3155 16.373 21.7431 16.8006 21.7431 17.3281Z" fill="#1F1F22"/>
</g>
<path d="M44.8451 12.0269L42.058 11.7317C42.0271 11.7284 41.9965 11.7262 41.9661 11.7249C40.8699 11.6774 40.8238 13.1971 40.7732 14.2932L40.4201 21.941C40.3695 23.037 40.3797 24.3839 41.4263 24.7134C41.6747 24.7916 41.9426 24.8264 42.2041 24.8145C43.3319 24.7632 43.7003 23.4288 43.9381 22.3251L45.4681 15.2227C45.7427 13.9479 46.1418 12.164 44.8451 12.0269Z" fill="#1F1F22"/>
<path d="M43.2436 28.7725C43.1814 29.7272 42.3569 30.4506 41.4022 30.3884C40.4476 30.3261 39.7241 29.5017 39.7864 28.547C39.8487 27.5923 40.6731 26.8688 41.6278 26.9311C42.5825 26.9934 43.3059 27.8178 43.2436 28.7725Z" fill="#1F1F22"/>
<defs>
<linearGradient id="paint0_linear_29267_12090" x1="1.06226" y1="0.821242" x2="30.301" y2="38.5355" gradientUnits="userSpaceOnUse">
<stop stop-color="white" stop-opacity="0"/>
<stop offset="1" stop-color="#D90000"/>
</linearGradient>
</defs>
</svg>
