<svg width="255" height="200" viewBox="0 0 255 200" fill="none" xmlns="http://www.w3.org/2000/svg">
<mask id="mask0_29267_12470" style="mask-type:alpha" maskUnits="userSpaceOnUse" x="55" y="0" width="145" height="145">
<path d="M199.5 72.8594C199.5 112.624 167.265 144.859 127.5 144.859C87.7355 144.859 55.5 112.624 55.5 72.8594C55.5 33.0949 87.7355 0.859375 127.5 0.859375C167.265 0.859375 199.5 33.0949 199.5 72.8594Z" fill="#70ACDE"/>
</mask>
<g mask="url(#mask0_29267_12470)">
<circle cx="127.347" cy="73.0295" r="72.0002" fill="#70ACDE"/>
<circle cx="127.347" cy="73.0295" r="72.0002" fill="url(#paint0_linear_29267_12470)" fill-opacity="0.2"/>
<path d="M54.5643 7.82286C73.2293 -8.48225 99.8028 -8.60139 113.918 7.5565C124.373 19.5248 125.06 37.0661 117.128 51.9844C116.986 52.2515 117.027 52.5797 117.226 52.8075C124.196 60.7859 122.375 73.7804 113.158 81.8314C103.942 89.8824 90.8208 89.9414 83.8512 81.963C82.0247 79.8721 79.4024 78.4056 76.6308 78.5682C65.0407 79.2482 53.8931 75.2646 46.3261 66.6024C32.2111 50.4445 35.8995 24.1279 54.5643 7.82286Z" fill="#99E587"/>
<path d="M160.925 20.3841C169.241 18.5948 177.239 22.9806 178.788 30.1803C180.337 37.3799 174.851 44.667 166.534 46.4564C165.283 46.7255 164.04 46.8549 162.824 46.8561C160.099 46.8587 157.343 47.4887 154.755 48.3445C150.855 49.6347 146.678 48.8196 144.119 45.8902C140.547 41.8008 141.48 35.14 146.204 31.0133C146.407 30.8364 146.613 30.6671 146.822 30.5054C148.507 29.2043 150.093 27.7139 151.435 26.0622C153.658 23.3273 156.971 21.2347 160.925 20.3841Z" fill="#99E587"/>
<path d="M147.205 78.3324C157.152 76.1922 166.975 82.6324 169.145 92.7172C169.146 92.7237 169.15 92.7293 169.156 92.7327C172.882 94.9458 175.633 98.4474 176.561 102.757C177.988 109.393 174.687 116.061 168.757 119.888C168.729 119.906 168.732 119.949 168.763 119.962C168.795 119.976 168.814 120.01 168.784 120.027C167.319 120.896 136.514 138.866 119.44 124.962C116.355 122.747 114.108 119.568 113.288 115.757C111.383 106.901 117.902 97.9863 127.849 95.8461C127.87 95.8416 127.891 95.8372 127.911 95.8328C130.553 95.2726 132.785 93.205 133.626 90.6385C135.607 84.5946 140.604 79.7527 147.205 78.3324Z" fill="#99E587"/>
<path d="M108.751 46.9531C108.751 48.9552 107.128 50.5781 105.126 50.5781C103.124 50.5781 101.501 48.9552 101.501 46.9531C101.501 44.9511 103.124 43.3281 105.126 43.3281C107.128 43.3281 108.751 44.9511 108.751 46.9531Z" fill="#202020"/>
<path d="M132.999 46.9531C132.999 48.9552 131.376 50.5781 129.374 50.5781C127.372 50.5781 125.749 48.9552 125.749 46.9531C125.749 44.9511 127.372 43.3281 129.374 43.3281C131.376 43.3281 132.999 44.9511 132.999 46.9531Z" fill="#202020"/>
<path d="M123.85 55.1254C125.098 54.5157 126.618 54.9854 127.298 56.2143C127.977 57.4432 127.568 58.9804 126.388 59.7133L126.271 59.7817C117.976 64.3703 110.007 61.8491 106.718 59.7802L106.565 59.6821L106.453 59.6052C105.331 58.7874 105.035 57.224 105.804 56.0485C106.572 54.873 108.123 54.5164 109.322 55.2165L109.437 55.2875L109.534 55.3495C111.629 56.6618 117.522 58.6219 123.73 55.1879L123.85 55.1254Z" fill="#202020"/>
</g>
<path d="M244.62 181.498C241.339 181.498 239.762 183.721 239.762 188.003V188.826C239.762 193.231 241.173 195.331 244.412 195.331C247.858 195.331 249.851 192.861 249.851 189.773V185.986C249.851 183.886 248.232 181.498 244.62 181.498ZM252.384 168.859C253.754 168.859 255 169.559 255 171.041V197.554C255 198.995 253.796 199.654 252.509 199.654C251.263 199.654 250.059 198.995 250.059 197.554V196.731H249.934C248.73 198.912 246.114 199.736 243.374 199.736C237.602 199.736 234.571 195.99 234.571 188.95V187.879C234.571 180.716 238.225 177.052 243.748 177.052C247.36 177.052 249.104 178.493 249.768 179.481V171.041C249.768 169.559 251.055 168.859 252.384 168.859Z" fill="#1F1F22"/>
<path d="M220.443 190.062C217.703 190.062 216.748 191.173 216.748 192.943V193.026C216.748 194.59 217.827 195.414 219.862 195.414C221.481 195.414 222.727 195.167 223.723 194.59C225.052 193.808 225.592 192.861 225.592 191.132V190.062H220.443ZM221.523 177.052C226.879 177.052 230.741 179.728 230.741 184.298V197.678C230.741 199.036 229.578 199.654 228.374 199.654C227.17 199.654 226.007 199.036 226.007 197.678V196.607H225.966C225.55 197.554 224.678 198.254 223.516 198.831C222.436 199.366 220.858 199.736 219.447 199.736C214.506 199.736 211.682 197.349 211.682 193.273V192.614C211.682 188.868 213.841 186.068 220.319 186.068H225.55V185.492C225.55 182.692 224.305 181.54 221.481 181.54C219.613 181.54 217.827 182.034 216.166 183.022C215.045 183.681 213.883 183.31 213.218 182.24C212.596 181.21 212.72 179.934 213.8 179.234C215.793 177.917 218.616 177.052 221.523 177.052Z" fill="#1F1F22"/>
<path d="M186.611 177.052C189.435 177.052 191.884 178.452 192.715 180.511C194.334 178.246 196.369 177.052 199.815 177.052C204.05 177.052 207.704 179.934 207.704 185.615V197.472C207.704 198.954 206.458 199.654 205.088 199.654C203.76 199.654 202.472 198.954 202.472 197.472V186.686C202.472 182.61 200.521 181.663 198.32 181.663C196.286 181.663 194.127 182.734 194.127 186.521V197.472C194.127 198.954 192.881 199.654 191.511 199.654C190.182 199.654 188.895 198.954 188.895 197.472V186.603C188.895 182.775 187.068 181.663 184.743 181.663C182.293 181.663 180.549 183.186 180.549 186.315V197.472C180.549 198.954 179.303 199.654 177.933 199.654C176.605 199.654 175.317 198.954 175.317 197.472V179.399C175.317 177.958 176.521 177.299 177.767 177.299C179.054 177.299 180.258 177.958 180.258 179.399V180.552C181.463 178.329 183.705 177.052 186.611 177.052Z" fill="#1F1F22"/>
<path d="M160.395 177.052C167.121 177.052 171.107 180.799 171.107 187.88V188.909C171.107 195.99 167.121 199.736 160.395 199.736C153.668 199.736 149.682 195.99 149.682 188.909V187.88C149.682 180.799 153.668 177.052 160.395 177.052ZM160.395 181.581C156.658 181.581 154.955 183.516 154.955 187.962V188.827C154.955 193.273 156.658 195.208 160.395 195.208C164.132 195.208 165.834 193.273 165.834 188.827V187.962C165.834 183.516 164.132 181.581 160.395 181.581Z" fill="#1F1F22"/>
<path d="M142.802 169.889C144.048 169.889 145.252 170.547 145.252 172.029V196.072C145.252 198.665 144.38 199.489 141.722 199.489C139.688 199.489 138.899 199.077 136.781 195.331L128.934 181.416C128.103 179.934 127.439 178.534 126.941 176.681V197.513C126.941 198.995 125.737 199.654 124.491 199.654C123.245 199.654 122.041 198.995 122.041 197.513V173.47C122.041 170.877 122.913 170.053 125.571 170.053C127.605 170.053 128.394 170.506 130.512 174.211L138.359 188.126C139.19 189.608 139.854 191.008 140.352 192.861V172.029C140.352 170.547 141.556 169.889 142.802 169.889Z" fill="#1F1F22"/>
<path d="M113.763 168.859C115.133 168.859 116.379 169.559 116.379 171.082V197.43C116.379 198.954 115.133 199.654 113.763 199.654C112.393 199.654 111.147 198.954 111.147 197.43V171.082C111.147 169.559 112.393 168.859 113.763 168.859Z" fill="#1F1F22"/>
<path d="M95.7734 190.062C93.033 190.062 92.078 191.173 92.078 192.943V193.026C92.078 194.59 93.1575 195.414 95.1921 195.414C96.8114 195.414 98.0571 195.167 99.0536 194.59C100.382 193.808 100.922 192.861 100.922 191.132V190.062H95.7734ZM96.8529 177.052C102.209 177.052 106.071 179.728 106.071 184.298V197.678C106.071 199.036 104.908 199.654 103.704 199.654C102.5 199.654 101.337 199.036 101.337 197.678V196.607H101.296C100.881 197.554 100.009 198.254 98.846 198.831C97.7664 199.366 96.1886 199.736 94.7769 199.736C89.8358 199.736 87.0124 197.349 87.0124 193.273V192.614C87.0124 188.868 89.1715 186.068 95.6488 186.068H100.881V185.492C100.881 182.692 99.6349 181.54 96.8114 181.54C94.9429 181.54 93.1575 182.034 91.4967 183.022C90.3756 183.681 89.213 183.31 88.5486 182.24C87.9258 181.21 88.0504 179.934 89.1299 179.234C91.123 177.917 93.9464 177.052 96.8529 177.052Z" fill="#1F1F22"/>
<path d="M66.1983 168.859C67.5685 168.859 68.8142 169.559 68.8142 171.041V179.769C70.3089 177.628 73.257 177.052 75.0839 177.052C81.063 177.052 84.011 180.798 84.011 187.838V188.909C84.011 196.072 80.3571 199.736 74.8348 199.736C71.8037 199.736 69.7276 198.501 68.6896 196.772H68.565V197.554C68.565 198.995 67.3609 199.654 66.0737 199.654C64.7866 199.654 63.5825 198.995 63.5825 197.554V171.041C63.5825 169.559 64.8696 168.859 66.1983 168.859ZM74.0459 181.498C70.5581 181.498 68.7311 183.762 68.7311 186.85V190.679C68.7311 192.943 71.0148 195.331 74.1704 195.331C77.2015 195.331 78.8208 193.108 78.8208 188.785V187.962C78.8208 183.721 77.4921 181.498 74.0459 181.498Z" fill="#1F1F22"/>
<path d="M48.6598 177.052C55.3863 177.052 59.3724 180.799 59.3724 187.88V188.909C59.3724 195.99 55.3863 199.736 48.6598 199.736C41.9333 199.736 37.9473 195.99 37.9473 188.909V187.88C37.9473 180.799 41.9333 177.052 48.6598 177.052ZM48.6598 181.581C44.9229 181.581 43.2205 183.516 43.2205 187.962V188.827C43.2205 193.273 44.9229 195.208 48.6598 195.208C52.3967 195.208 54.0991 193.273 54.0991 188.827V187.962C54.0991 183.516 52.3967 181.581 48.6598 181.581Z" fill="#1F1F22"/>
<path d="M31.1224 168.859C32.4926 168.859 33.7382 169.559 33.7382 171.082V197.43C33.7382 198.954 32.4926 199.654 31.1224 199.654C29.7522 199.654 28.5065 198.954 28.5065 197.43V171.082C28.5065 169.559 29.7522 168.859 31.1224 168.859Z" fill="#1F1F22"/>
<path d="M13.3284 169.683C17.2314 169.683 19.9718 170.588 21.9233 171.906C23.169 172.77 23.252 174.17 22.4631 175.282C21.6742 176.393 20.4286 176.681 19.3905 176.023C17.8127 175.035 15.8612 174.458 13.3284 174.458C7.76451 174.458 5.35627 176.764 5.35627 184.339V185.203C5.35627 192.778 7.63995 195.084 13.5775 195.084C15.6121 195.084 17.0238 194.837 18.5601 194.219V187.344H13.9097C12.6225 187.344 12.0412 186.315 12.0412 185.121C12.0412 183.968 12.6225 182.939 13.9097 182.939H20.304C22.9614 182.939 23.8333 183.762 23.8333 186.356V194.507C23.8333 196.607 23.2105 197.636 21.4251 198.377C19.2244 199.283 16.2764 199.859 13.4114 199.859C4.73345 199.859 0 196.031 0 185.615V183.927C0 173.511 4.73345 169.683 13.3284 169.683Z" fill="#1F1F22"/>
<defs>
<linearGradient id="paint0_linear_29267_12470" x1="116.276" y1="34.7009" x2="169.99" y2="128.5" gradientUnits="userSpaceOnUse">
<stop stop-color="white"/>
<stop offset="1" stop-color="#2887D7"/>
</linearGradient>
</defs>
</svg>
