<svg width="121" height="120" viewBox="0 0 121 120" fill="none" xmlns="http://www.w3.org/2000/svg">
<rect x="0.5" width="120" height="120" rx="60" fill="#E5F3FF"/>
<g filter="url(#filter0_d_29267_12040)">
<path d="M53.1436 37.5C59.2695 37.5 64.8174 40.0008 68.8427 44.0472C69.2142 44.4207 69.7361 44.6007 70.2563 44.5368C71.0841 44.4351 71.9283 44.3825 72.7855 44.3825C78.979 44.3825 84.4937 47.1203 88.0418 51.3817C88.434 51.8527 89.0434 52.0817 89.6472 52.0005C90.2291 51.9222 90.8239 51.8816 91.4286 51.8816C98.3717 51.8817 104 57.2147 104 63.7933C104 70.3719 98.3716 75.705 91.4286 75.705C90.2524 75.705 89.1139 75.5518 88.0342 75.2655C87.4484 75.1101 86.8192 75.2574 86.3728 75.671C82.8752 78.912 78.0782 80.9118 72.7855 80.9118C70.1832 80.9118 67.7007 80.4281 65.4336 79.5514C64.9597 79.3682 64.4288 79.4054 63.9859 79.6555C60.7775 81.4673 57.0799 82.5 53.1436 82.5C48.846 82.5 44.833 81.269 41.4306 79.1372C40.7777 78.7282 39.9307 78.8082 39.3411 79.3058C36.9785 81.2994 33.9378 82.4995 30.6193 82.4995C23.0977 82.4994 17.0001 76.337 17 68.735C17 61.133 23.0976 54.9703 30.6193 54.9703C31.0897 54.9703 31.5085 54.6535 31.6296 54.1941C34.1626 44.5816 42.8348 37.5 53.1436 37.5Z" fill="white"/>
<path d="M43.2543 51.2443C43.2543 52.1202 42.5518 52.8302 41.6852 52.8302C40.8185 52.8302 40.116 52.1202 40.116 51.2443C40.116 50.3685 40.8185 49.6585 41.6852 49.6585C42.5518 49.6585 43.2543 50.3685 43.2543 51.2443Z" fill="#202020"/>
<path d="M50.3154 49.9228C50.3154 50.7986 49.6128 51.5086 48.7462 51.5086C47.8796 51.5086 47.1771 50.7986 47.1771 49.9228C47.1771 49.0469 47.8796 48.3369 48.7462 48.3369C49.6128 48.3369 50.3154 49.0469 50.3154 49.9228Z" fill="#202020"/>
<path d="M42.2729 55.602C42.5754 55.2128 43.125 55.1351 43.5204 55.4175L43.5582 55.4458L43.6602 55.5233C44.1929 55.9117 45.0689 56.3078 46.0331 56.2985C47.0043 56.289 48.1745 55.8696 49.2765 54.349L49.3054 54.3115C49.6109 53.9318 50.1608 53.8571 50.5558 54.1495C50.9636 54.4514 51.0521 55.0303 50.7534 55.4425L50.6194 55.6224C49.2277 57.4465 47.588 58.1335 46.0507 58.1484C44.6168 58.1624 43.3653 57.5923 42.5786 57.0162L42.4275 56.901L42.3912 56.8706C42.026 56.5492 41.9705 55.9913 42.2729 55.602Z" fill="#202020"/>
</g>
<defs>
<filter id="filter0_d_29267_12040" x="11" y="31.5" width="107" height="65" filterUnits="userSpaceOnUse" color-interpolation-filters="sRGB">
<feFlood flood-opacity="0" result="BackgroundImageFix"/>
<feColorMatrix in="SourceAlpha" type="matrix" values="0 0 0 0 0 0 0 0 0 0 0 0 0 0 0 0 0 0 127 0" result="hardAlpha"/>
<feOffset dx="4" dy="4"/>
<feGaussianBlur stdDeviation="5"/>
<feComposite in2="hardAlpha" operator="out"/>
<feColorMatrix type="matrix" values="0 0 0 0 0.240404 0 0 0 0 0.618659 0 0 0 0 0.949632 0 0 0 0.04 0"/>
<feBlend mode="normal" in2="BackgroundImageFix" result="effect1_dropShadow_29267_12040"/>
<feBlend mode="normal" in="SourceGraphic" in2="effect1_dropShadow_29267_12040" result="shape"/>
</filter>
</defs>
</svg>
