<svg width="473" height="245" viewBox="0 0 473 245" fill="none" xmlns="http://www.w3.org/2000/svg">
<path d="M44.5 102.281C41 112.531 43.5 130.781 43.5 138.281C43.75 171.281 55.75 175.531 64.75 136.031C68.5 120.781 58.25 108.531 53.75 93.5312C47.25 70.7812 75.75 52.2812 87.25 79.5312C94.5 96.5312 87 133.031 89 150.281C91.5 171.281 106 180.781 105.25 158.031C104.75 143.781 108.25 118.531 96.75 94.5312C82.5 65.2812 131 57.5312 140.25 92.7812C144 108.031 137.75 142.281 133 177.031C127.25 216.781 87.75 214.781 74.25 177.031C64.25 218.281 0.75 225.531 13.5 164.031C18.25 140.781 6 124.281 4.75 104.531C2 50.2812 61.25 52.2812 44.5 102.281ZM242.061 166.031C252.311 190.531 226.311 201.531 217.561 182.781C216.811 180.781 215.561 192.281 203.311 198.281C168.561 215.031 136.811 185.781 153.061 154.031C159.561 141.531 176.311 134.031 187.311 130.781C201.811 126.281 208.311 120.781 206.561 104.781C205.311 91.7812 194.061 83.0312 188.561 89.0312C183.061 94.7812 193.811 101.031 195.811 104.781C208.311 129.531 153.561 136.781 147.561 111.781C146.561 108.281 141.811 89.0312 181.061 72.5312C199.811 64.7812 251.811 48.2812 241.311 115.281C239.061 128.781 236.811 153.031 242.061 166.031ZM196.061 171.281C204.811 174.031 214.311 168.031 210.811 160.781C206.311 152.031 206.811 146.031 204.061 146.281C198.561 147.781 193.561 151.281 190.561 156.281C187.561 163.281 190.061 169.531 196.061 171.281ZM306.512 167.281C288.762 193.031 305.762 186.031 308.012 178.781C319.512 140.031 367.762 160.031 356.762 182.281C341.512 213.781 296.012 211.031 272.512 203.281C248.262 195.281 255.262 174.531 265.012 159.031C286.762 124.781 320.762 118.531 318.012 91.0312C313.762 106.781 300.012 116.281 278.762 119.031C248.762 122.781 241.012 84.5312 279.012 71.7812C293.262 67.0312 308.012 63.7812 323.012 62.0312C339.262 61.7812 351.762 72.0312 351.262 90.7812C350.262 124.781 321.762 140.031 306.512 167.281ZM365.719 83.7812C375.969 55.7812 421.219 61.2812 409.969 88.0312C389.719 136.031 402.969 144.281 411.969 149.781C425.469 158.031 397.969 117.031 419.469 77.7812C427.969 62.5312 437.469 54.2812 446.719 55.0312C463.469 56.2812 472.969 68.0312 457.969 95.0312C444.219 120.031 445.719 155.531 459.219 185.031C469.969 208.781 441.219 244.531 393.969 232.781C338.219 219.031 384.219 142.531 412.219 193.031C418.969 205.531 428.719 207.531 426.969 185.531C426.719 181.531 421.469 161.531 413.469 166.281C403.469 172.281 388.469 179.031 374.469 165.031C372.719 163.281 347.969 131.531 365.719 83.7812Z" fill="white"/>
<path fill-rule="evenodd" clip-rule="evenodd" d="M295.716 3.59956C297.357 1.90467 299.444 0.742359 301.718 0.255821C303.992 -0.230718 306.355 -0.0202222 308.514 0.861371C310.674 1.74297 312.536 3.25714 313.872 5.21733C315.208 7.17752 315.959 9.49809 316.032 11.8931C318.983 11.0167 322.148 11.3546 324.862 12.8358C327.576 14.317 329.628 16.8261 330.586 19.8358C331.535 22.8369 331.315 26.105 329.974 28.9422C328.632 31.7794 326.274 33.9672 323.398 35.0433C325.103 37.6598 325.753 40.8589 325.21 43.9617C324.666 47.0645 322.973 49.8267 320.488 51.6623C317.999 53.5171 314.912 54.3113 311.87 53.8799C308.828 53.4485 306.064 51.8247 304.152 49.3456C302.962 50.8912 301.428 52.1188 299.682 52.9253C297.935 53.7317 296.026 54.0933 294.116 53.9795C292.206 53.8658 290.35 53.2801 288.705 52.2717C287.06 51.2634 285.673 49.8619 284.663 48.1853C283.474 46.2046 282.864 43.9124 282.905 41.5831C282.946 39.2537 283.637 36.986 284.895 35.0512C282.026 33.9561 279.679 31.757 278.347 28.9153C277.015 26.0737 276.802 22.8103 277.752 19.8098C278.702 16.8094 280.741 14.3051 283.442 12.8224C286.143 11.3396 289.295 10.9937 292.238 11.8572C292.343 8.75101 293.586 5.80154 295.716 3.60354M312.654 28.1134C312.654 32.938 308.84 36.8455 304.133 36.8455C299.426 36.8455 295.611 32.938 295.611 28.1134C295.611 23.2888 299.426 19.3812 304.133 19.3812C308.84 19.3812 312.654 23.2888 312.654 28.1134Z" fill="#FFF292"/>
</svg>
