<svg width="154" height="46" viewBox="0 0 154 46" fill="none" xmlns="http://www.w3.org/2000/svg">
<rect width="46" height="46" rx="10" fill="#9DB575"/>
<path fill-rule="evenodd" clip-rule="evenodd" d="M17.6788 7.33305C18.7125 6.23451 20.0262 5.48116 21.4581 5.16581C22.8899 4.85046 24.3774 4.98689 25.7371 5.5583C27.0968 6.1297 28.2695 7.11111 29.1106 8.3816C29.9516 9.6521 30.4244 11.1562 30.4705 12.7085C32.3283 12.1404 34.3211 12.3594 36.03 13.3195C37.7389 14.2795 39.0309 15.9058 39.6342 17.8565C40.2315 19.8017 40.0933 21.9199 39.2487 23.7588C38.4041 25.5977 36.9194 27.0158 35.1084 27.7132C36.182 29.4091 36.5912 31.4826 36.2491 33.4937C35.907 35.5047 34.8406 37.2951 33.2761 38.4848C31.7087 39.687 29.7656 40.2018 27.8502 39.9222C25.9349 39.6426 24.1945 38.5901 22.9907 36.9833C22.241 37.985 21.2757 38.7807 20.1759 39.3034C19.0762 39.8261 17.8744 40.0605 16.6716 39.9867C15.4688 39.913 14.3002 39.5334 13.2644 38.8798C12.2286 38.2263 11.3559 37.3179 10.7197 36.2312C9.97118 34.9475 9.58687 33.4618 9.61276 31.952C9.63866 30.4422 10.0736 28.9724 10.8657 27.7184C9.05908 27.0086 7.58152 25.5833 6.743 23.7414C5.90448 21.8996 5.77016 19.7844 6.36823 17.8397C6.96631 15.895 8.25028 14.2718 9.95078 13.3108C11.6513 12.3498 13.6361 12.1256 15.4889 12.6852C15.5552 10.672 16.3378 8.76025 17.6788 7.33563M28.3439 23.2216C28.3439 26.3487 25.9422 28.8814 22.9785 28.8814C20.0148 28.8814 17.6131 26.3487 17.6131 23.2216C17.6131 20.0946 20.0148 17.5619 22.9785 17.5619C25.9422 17.5619 28.3439 20.0946 28.3439 23.2216Z" fill="white"/>
<path d="M132.928 12.8961C135.027 7.16319 144.291 8.28931 141.988 13.7663C137.842 23.5943 140.555 25.2834 142.397 26.4096C145.162 28.0987 139.531 19.704 143.933 11.6677C145.673 8.54524 147.619 6.85607 149.512 7.00963C152.942 7.26556 154.887 9.67136 151.816 15.1996C149.001 20.3183 149.308 27.5869 152.072 33.6269C154.273 38.4897 148.386 45.8095 138.712 43.4037C127.297 40.5884 136.716 24.9251 142.449 35.2649C143.831 37.8243 145.827 38.2338 145.469 33.7293C145.417 32.9103 144.343 28.8153 142.705 29.7879C140.657 31.0164 137.586 32.3984 134.719 29.532C134.361 29.1737 129.294 22.6729 132.928 12.8961Z" fill="#9DB575"/>
<path d="M120.806 29.9931C117.172 35.2654 120.653 33.8321 121.113 32.3477C123.468 24.4137 133.347 28.5087 131.095 33.0643C127.972 39.5139 118.656 38.9508 113.845 37.364C108.88 35.726 110.313 31.4775 112.309 28.3039C116.762 21.2913 123.724 20.0116 123.161 14.381C122.291 17.6058 119.475 19.5509 115.124 20.114C108.982 20.8818 107.395 13.0501 115.176 10.4396C118.093 9.46704 121.113 8.80161 124.184 8.4433C127.512 8.39211 130.071 10.4908 129.969 14.3298C129.764 21.2913 123.929 24.4137 120.806 29.9931Z" fill="#9DB575"/>
<path d="M107.608 29.7373C109.707 34.7537 104.383 37.0059 102.592 33.1669C102.438 32.7574 102.182 35.112 99.674 36.3405C92.559 39.77 86.0582 33.7811 89.3854 27.2804C90.7162 24.721 94.1458 23.1854 96.398 22.52C99.3669 21.5986 100.698 20.4725 100.339 17.1965C100.083 14.5348 97.7801 12.7432 96.6539 13.9717C95.5278 15.149 97.7289 16.4287 98.1384 17.1965C100.698 22.264 89.4877 23.7485 88.2592 18.6297C88.0545 17.9131 87.0819 13.9717 95.1183 10.5934C98.9574 9.00656 109.604 5.6282 107.454 19.3464C106.994 22.1105 106.533 27.0756 107.608 29.7373ZM98.1896 30.8123C99.9811 31.3753 101.926 30.1468 101.21 28.6624C100.288 26.8709 100.391 25.6424 99.8275 25.6936C98.7014 26.0007 97.6777 26.7173 97.0634 27.741C96.4492 29.1743 96.9611 30.454 98.1896 30.8123Z" fill="#9DB575"/>
<path d="M67.1578 16.6842C66.4412 18.7829 66.9531 22.5195 66.9531 24.0552C67.0042 30.8119 69.4612 31.682 71.304 23.5945C72.0718 20.4721 69.9731 17.9639 69.0517 14.8927C67.7209 10.2346 73.5562 6.44679 75.9108 12.0262C77.3952 15.5069 75.8596 22.9802 76.2691 26.5121C76.781 30.8119 79.7498 32.757 79.5963 28.0989C79.4939 25.1813 80.2105 20.0114 77.8559 15.0974C74.9382 9.10852 84.8686 7.52172 86.7625 14.7391C87.5303 17.8615 86.2506 24.8742 85.2781 31.9892C84.1007 40.1279 76.0132 39.7184 73.2491 31.9892C71.2016 40.435 58.2001 41.9195 60.8106 29.3274C61.7832 24.567 59.275 21.1887 59.0191 17.1449C58.456 6.03729 70.5873 6.44679 67.1578 16.6842Z" fill="#9DB575"/>
</svg>
