<svg width="222" height="220" viewBox="0 0 222 220" fill="none" xmlns="http://www.w3.org/2000/svg">
<rect x="44" width="134.143" height="134.143" rx="24" fill="#9DB575"/>
<path fill-rule="evenodd" clip-rule="evenodd" d="M95.4823 25.006C98.39 22.0042 102.085 19.9456 106.113 19.0839C110.141 18.2222 114.325 18.595 118.149 20.1564C121.974 21.7178 125.273 24.3995 127.639 27.8712C130.004 31.3429 131.334 35.4528 131.464 39.6946C136.69 38.1423 142.295 38.7408 147.102 41.3641C151.909 43.9874 155.543 48.4314 157.241 53.7617C158.921 59.077 158.532 64.8652 156.156 69.89C153.78 74.9149 149.604 78.7897 144.51 80.6955C147.53 85.3297 148.681 90.9955 147.719 96.4908C146.756 101.986 143.757 106.878 139.356 110.129C134.947 113.414 129.481 114.821 124.093 114.057C118.706 113.293 113.81 110.417 110.424 106.026C108.315 108.764 105.6 110.938 102.506 112.366C99.413 113.794 96.0323 114.435 92.6489 114.233C89.2656 114.032 85.9787 112.995 83.065 111.209C80.1514 109.423 77.6964 106.941 75.9068 103.971C73.8014 100.463 72.7204 96.4036 72.7932 92.2781C72.866 88.1527 74.0896 84.1362 76.3175 80.7097C71.2358 78.7701 67.0795 74.8753 64.7208 69.8425C62.3622 64.8096 61.9843 59.0298 63.6667 53.7158C65.349 48.4017 68.9607 43.9664 73.744 41.3404C78.5273 38.7144 84.1105 38.1017 89.3222 39.631C89.5087 34.1297 91.71 28.9059 95.4823 25.013M125.482 68.4221C125.482 76.9669 118.726 83.8875 110.39 83.8875C102.053 83.8875 95.2975 76.9669 95.2975 68.4221C95.2975 59.8773 102.053 52.9567 110.39 52.9567C118.726 52.9567 125.482 59.8773 125.482 68.4221Z" fill="white"/>
<path d="M173.95 155.518C178.889 143.626 200.689 145.962 195.269 157.324C185.513 177.711 191.896 181.215 196.232 183.551C202.736 187.056 189.488 169.641 199.846 152.97C203.941 146.493 208.518 142.989 212.974 143.307C221.044 143.838 225.62 148.829 218.394 160.297C211.77 170.915 212.492 185.994 218.996 198.524C224.175 208.611 210.324 223.796 187.56 218.805C160.702 212.965 182.863 180.472 196.353 201.922C199.605 207.231 204.302 208.08 203.459 198.736C203.339 197.037 200.809 188.542 196.955 190.56C192.137 193.108 184.911 195.975 178.166 190.029C177.323 189.286 165.399 175.8 173.95 155.518Z" fill="#9DB575"/>
<path d="M145.425 190.983C136.874 201.921 145.064 198.947 146.148 195.868C151.688 179.409 174.934 187.904 169.634 197.355C162.287 210.734 140.367 209.566 129.045 206.274C117.362 202.876 120.734 194.063 125.432 187.479C135.91 172.932 152.291 170.277 150.966 158.597C148.918 165.286 142.294 169.322 132.056 170.49C117.603 172.082 113.869 155.836 132.176 150.42C139.042 148.403 146.148 147.023 153.374 146.279C161.203 146.173 167.225 150.527 166.985 158.491C166.503 172.932 152.772 179.409 145.425 190.983Z" fill="#9DB575"/>
<path d="M114.375 190.454C119.313 200.86 106.787 205.532 102.571 197.568C102.21 196.718 101.608 201.603 95.7058 204.151C78.9642 211.266 63.668 198.842 71.4968 185.357C74.6283 180.047 82.698 176.862 87.9975 175.481C94.9832 173.57 98.1147 171.234 97.2716 164.438C96.6694 158.916 91.2494 155.2 88.5997 157.748C85.9499 160.191 91.129 162.845 92.0925 164.438C98.1147 174.95 71.7377 178.03 68.847 167.411C68.3653 165.925 66.0768 157.748 84.9864 150.74C94.0196 147.448 119.072 140.44 114.013 168.898C112.929 174.632 111.845 184.932 114.375 190.454ZM92.213 192.683C96.4285 193.851 101.005 191.303 99.3191 188.224C97.1512 184.507 97.392 181.959 96.0672 182.065C93.4174 182.702 91.0086 184.189 89.5632 186.312C88.1179 189.285 89.3224 191.94 92.213 192.683Z" fill="#9DB575"/>
<path d="M19.1953 163.376C17.5091 167.73 18.7135 175.481 18.7135 178.667C18.834 192.683 24.6152 194.488 28.9512 177.711C30.7578 171.234 25.8197 166.031 23.6517 159.66C20.5202 149.997 34.2507 142.139 39.7911 153.713C43.2839 160.934 39.6706 176.437 40.6342 183.764C41.8386 192.683 48.8243 196.718 48.463 187.055C48.2221 181.003 49.9083 170.278 44.3679 160.084C37.5026 147.661 60.8686 144.369 65.325 159.341C67.1316 165.818 64.1206 180.366 61.8321 195.126C59.062 212.009 40.0319 211.16 33.528 195.126C28.7103 212.646 -1.88226 215.726 4.26034 189.604C6.54876 179.729 0.647042 172.72 0.0448269 164.332C-1.28005 141.289 27.265 142.139 19.1953 163.376Z" fill="#9DB575"/>
</svg>
