<svg width="122" height="122" viewBox="0 0 122 122" fill="none" xmlns="http://www.w3.org/2000/svg">
<mask id="mask0_33326_9834" style="mask-type:alpha" maskUnits="userSpaceOnUse" x="0" y="0" width="122" height="122">
<path d="M122 61C122 94.6894 94.6894 122 61 122C27.3106 122 0 94.6894 0 61C0 27.3106 27.3106 0 61 0C94.6894 0 122 27.3106 122 61Z" fill="#70ACDE"/>
</mask>
<g mask="url(#mask0_33326_9834)">
<circle cx="60.8703" cy="61.1441" r="61.0001" fill="#CDE7FF"/>
<circle cx="60.8703" cy="61.1441" r="61.0001" fill="url(#paint0_linear_33326_9834)" fill-opacity="0.1"/>
<path d="M-0.792655 5.89962C15.0207 -7.91443 37.5344 -8.01537 49.493 5.67396C58.3507 15.8137 58.9325 30.6751 52.2126 43.3143C52.0923 43.5406 52.1273 43.8186 52.2959 44.0116C58.2007 50.7711 56.6577 61.7803 48.8495 68.6013C41.0412 75.4223 29.9247 75.4722 24.0198 68.7128C22.4723 66.9414 20.2507 65.6989 17.9025 65.8367C8.08314 66.4128 -1.36135 63.0378 -7.77231 55.699C-19.7308 42.0096 -16.606 19.7137 -0.792655 5.89962Z" fill="#DAF5EB"/>
<path d="M89.3181 16.5418C96.3642 15.0258 103.14 18.7416 104.452 24.8413C105.765 30.941 101.117 37.1147 94.0707 38.6308C93.011 38.8588 91.9574 38.9684 90.9276 38.9694C88.6189 38.9717 86.2834 39.5054 84.0915 40.2305C80.7872 41.3235 77.2485 40.633 75.0804 38.1511C72.0537 34.6864 72.8445 29.0433 76.8468 25.5471C77.0183 25.3972 77.193 25.2538 77.3704 25.1167C78.7973 24.0144 80.1413 22.7517 81.2785 21.3524C83.1615 19.0353 85.9689 17.2624 89.3181 16.5418Z" fill="#DAF5EB"/>
<path d="M77.6946 65.6369C86.1222 63.8236 94.4443 69.2799 96.2826 77.824C96.2838 77.8295 96.2871 77.8343 96.2919 77.8372C99.4492 79.7121 101.78 82.6787 102.566 86.3299C103.775 91.9518 100.978 97.601 95.9544 100.843C95.9304 100.859 95.9332 100.895 95.9594 100.907C95.9861 100.918 96.0023 100.947 95.9773 100.962C94.7359 101.697 68.6375 116.923 54.172 105.143C51.5578 103.266 49.6547 100.573 48.96 97.3442C47.3456 89.8408 52.8687 82.2881 61.2962 80.4748C61.3138 80.4711 61.3314 80.4673 61.3489 80.4636C63.5874 79.989 65.4778 78.2373 66.1905 76.0629C67.8687 70.9423 72.1021 66.8402 77.6946 65.6369Z" fill="#DAF5EB"/>
<path d="M45.1155 39.0516C45.1155 40.7478 43.7405 42.1228 42.0443 42.1228C40.3482 42.1228 38.9731 40.7478 38.9731 39.0516C38.9731 37.3555 40.3482 35.9805 42.0443 35.9805C43.7405 35.9805 45.1155 37.3555 45.1155 39.0516Z" fill="#9297A3"/>
<path d="M65.659 39.0516C65.659 40.7478 64.2839 42.1228 62.5878 42.1228C60.8916 42.1228 59.5166 40.7478 59.5166 39.0516C59.5166 37.3555 60.8916 35.9805 62.5878 35.9805C64.2839 35.9805 65.659 37.3555 65.659 39.0516Z" fill="#9297A3"/>
<path d="M57.9073 51.8804C58.9644 52.397 60.2522 51.9991 60.8281 50.9579C61.404 49.9168 61.0568 48.6144 60.0574 47.9935L59.9585 47.9356C52.9306 44.048 46.1792 46.184 43.3922 47.9368L43.2625 48.02L43.1682 48.0851C42.2173 48.7779 41.9668 50.1025 42.6178 51.0984C43.2689 52.0943 44.5829 52.3964 45.599 51.8033L45.6962 51.7431L45.7783 51.6906C47.5532 50.5788 52.5463 48.9182 57.8057 51.8275L57.9073 51.8804Z" fill="#9297A3"/>
<path d="M71.0229 47.1449C69.4332 46.3174 68.6344 44.4763 67.956 42.1453C67.8638 41.8285 68.1033 41.5127 68.4331 41.5227C69.9893 41.5699 73.3567 41.8689 74.2679 43.7663C75.3496 46.0187 73.1862 48.2711 71.0229 47.1449Z" fill="#94BDF6"/>
</g>
<defs>
<linearGradient id="paint0_linear_33326_9834" x1="51.4909" y1="28.6712" x2="96.9988" y2="108.14" gradientUnits="userSpaceOnUse">
<stop stop-color="white"/>
<stop offset="1" stop-color="#2887D7"/>
</linearGradient>
</defs>
</svg>
